<svg height="59" viewBox="0 0 81 59" width="81" xmlns="http://www.w3.org/2000/svg">
    <title></title>
    <path d="M74.66 18.256H47.323c-1.216-4.245-3.605-8.116-6.95-11.117-5.07-4.55-11.618-6.64-18.44-5.885C10.99 2.47 2.238 11.32 1.123 22.3c-.61 5.996 1.028 11.923 4.606 16.69 3.43 4.567 8.35 7.725 13.89 8.922l5.83 5.84c.49.49 1.137.75 1.8.75.33 0 .66-.064.98-.196.956-.397 1.574-1.325 1.574-2.362v-4.09c.958-.214 1.892-.486 2.798-.81v.162c0 2.865 2.326 5.196 5.185 5.196h8.707l4.638 4.648c.415.416.966.636 1.527.636.28 0 .56-.055.83-.166.81-.337 1.334-1.123 1.334-2.003v-3.115H74.66c2.86 0 5.186-2.33 5.186-5.196V23.452c0-2.865-2.326-5.196-5.185-5.196zM28.355 45.624c-.59.105-1.018.618-1.018 1.218v5.102c0 .03 0 .055-.05.076-.052.02-.07.003-.09-.018l-6.09-6.1c-.172-.174-.392-.292-.632-.34-5.095-1.015-9.63-3.877-12.77-8.06-3.204-4.268-4.67-9.577-4.123-14.95.48-4.736 2.62-9.24 6.025-12.684 3.405-3.444 7.878-5.63 12.598-6.152.82-.09 1.636-.137 2.446-.137 5.22 0 10.146 1.874 14.076 5.4 4.478 4.02 7.047 9.777 7.047 15.797 0 10.275-7.325 19.042-17.418 20.846zm41.912-17.768c.482.483.482 1.266 0 1.75l-13.17 13.196c-.24.242-.556.362-.872.362-.315 0-.63-.12-.872-.362l-6.582-6.595c-.48-.483-.48-1.267 0-1.75.483-.483 1.265-.483 1.747 0l5.71 5.72 12.294-12.32c.484-.484 1.265-.484 1.747 0zm7.11 19.35c0 1.5-1.218 2.722-2.715 2.722H53.59c-.68 0-1.234.553-1.234 1.237v3.61L47.88 50.29c-.232-.232-.546-.362-.873-.362H37.79c-1.5 0-2.717-1.22-2.717-2.722V46c7.903-3.893 13.168-12.015 13.168-21.222 0-1.366-.12-2.72-.35-4.047h26.77c1.5 0 2.718 1.223 2.718 2.723v23.754zm-52.755-13.11c.682 0 1.236.555 1.236 1.238v.002c0 .683-.554 1.238-1.235 1.238-.683 0-1.236-.555-1.236-1.238v-.002c0-.683.553-1.238 1.235-1.238zm5.5-18.788c1.495 1.498 2.32 3.456 2.32 5.512 0 3.433-2.292 6.52-5.57 7.505-.608.182-1.015.72-1.015 1.338v.394c0 .683-.553 1.237-1.235 1.237s-1.235-.554-1.235-1.237v-.394c0-1.72 1.115-3.21 2.775-3.708 2.243-.674 3.81-2.786 3.81-5.136 0-1.396-.567-2.733-1.596-3.764-1.03-1.03-2.363-1.6-3.755-1.6-2.95 0-5.35 2.406-5.35 5.362 0 .682-.552 1.236-1.233 1.236-.682 0-1.235-.554-1.235-1.237 0-4.32 3.508-7.836 7.82-7.836 2.05 0 4.004.826 5.5 2.325v.003z"
          fill="#1A1E4F" fill-rule="nonzero" stroke="#1A1E4F"></path>
</svg>
