<svg height="65" viewBox="0 0 67 65" width="67" xmlns="http://www.w3.org/2000/svg">
    <title></title>
    <path d="M8.804 21.25c.073.007.14.01.21.01.544 0 1.068-.213 1.456-.603l1.737-1.74 12.04 12.04-17.88 17.88c-1.438 1.44-2.13 3.43-1.94 5.6.18 2.04 1.126 4.008 2.64 5.517l.148.154c1.77 1.765 4.048 2.668 6.22 2.668 1.84 0 3.602-.645 4.92-1.962L31.67 47.5l14.967 15.167c1.272 1.272 3.02 1.975 4.922 1.975 2.245 0 4.51-.978 6.337-2.81 1.538-1.54 2.483-3.505 2.66-5.54.186-2.17-.503-4.16-1.937-5.592L47.097 39.02c3.88-.006 7.593-1.68 10.976-5.06l4.702-4.704c5.146-5.143 3.622-11.2 1.212-16.98L62.8 9.435 55.19 17.05c-1.122 1.126-2.132 1.77-2.996 1.92-.557.1-1.417.078-2.668-1.178l-.146-.14c-1.24-1.24-2.2-2.696.755-5.653l7.616-7.612L54.916 3.2C49.136.79 43.08-.724 37.936 4.412l-4.71 4.707c-5.267 5.275-6.773 11.333-4.347 17.25-.146.12-.29.25-.425.383l-1.293 1.294-12.04-12.04 1.892-1.894c.436-.436.654-1.05.59-1.668-.063-.616-.4-1.17-.917-1.51L7.137 4.66c-.816-.533-1.897-.427-2.588.267L1.277 8.2c-.687.692-.796 1.773-.262 2.587l6.275 9.546c.344.52.9.855 1.516.92l-.002-.003zm46.893 32.348c.57.57.836 1.395.754 2.335-.09 1.072-.61 2.13-1.586 3.11-.94.94-2.144 1.48-3.307 1.48-.566 0-1.373-.134-2-.76l-18.57-18.822 6.154-6.153 18.56 18.81h-.003zM31.37 29.663c.23-.23.528-.412.904-.553l2.23-.836-1.148-2.084c-2.675-4.87-1.736-9.634 2.786-14.16l4.712-4.705c2.4-2.403 5.07-2.862 9.55-1.417l-3.177 3.174c-5.32 5.325-2.755 9.476-.736 11.496l.146.14c2.39 2.4 4.73 2.575 6.27 2.31 1.742-.306 3.445-1.31 5.203-3.066l3.17-3.178c1.444 4.488.986 7.157-1.417 9.558l-4.703 4.705c-4.21 4.21-8.673 4.96-13.625 2.328L39.93 31.75c-.64-.65-1.436-1.152-2.365-1.503l-1.24-.466-3.713 3.71-2.537-2.534 1.294-1.294zm-1.672 6.743l-3.715 3.716.466 1.24c.345.92.847 1.71 1.49 2.35l.838.848-13.335 13.337c-1.266 1.27-3.654.952-5.294-.682l-.15-.158c-.853-.848-1.374-1.905-1.467-2.98-.08-.936.185-1.768.75-2.333l17.88-17.876 2.537 2.538h-.002zM6.282 9.022l6.033 3.965-2.968 2.968L5.38 9.922l.9-.9h.002z"
          fill="#1A1E4F" fill-rule="nonzero"></path>
</svg>
